<?xml version="1.0" encoding="utf-8"?>
<!-- Generator: Adobe Illustrator 19.0.0, SVG Export Plug-In . SVG Version: 6.00 Build 0)  -->
<svg version="1.1" id="Layer_1" xmlns="http://www.w3.org/2000/svg" xmlns:xlink="http://www.w3.org/1999/xlink" x="0px" y="0px"
	 viewBox="0 0 96 96" style="enable-background:new 0 0 96 96;" xml:space="preserve">
<style type="text/css">
	.st0{fill:#333333;}
</style>
<g id="XMLID_2_">
	<path id="XMLID_7_" class="st0" d="M54.3,45.9c0-0.6-0.2-1.1-0.6-1.5c-0.4-0.4-0.9-0.6-1.5-0.6h-8.5c-0.6,0-1.1,0.2-1.5,0.6
		s-0.6,0.9-0.6,1.5c0,0.6,0.2,1.1,0.6,1.5c0.4,0.4,0.9,0.6,1.5,0.6h8.5c0.6,0,1.1-0.2,1.5-0.6C54.1,47,54.3,46.5,54.3,45.9z
		 M73.4,39.5v31.7c0,0.6-0.2,1.1-0.6,1.5c-0.4,0.4-0.9,0.6-1.5,0.6H24.7c-0.6,0-1.1-0.2-1.5-0.6c-0.4-0.4-0.6-0.9-0.6-1.5V39.5
		c0-0.6,0.2-1.1,0.6-1.5s0.9-0.6,1.5-0.6h46.5c0.6,0,1.1,0.2,1.5,0.6C73.2,38.5,73.4,39,73.4,39.5z M75.5,24.7v8.5
		c0,0.6-0.2,1.1-0.6,1.5s-0.9,0.6-1.5,0.6H22.6c-0.6,0-1.1-0.2-1.5-0.6c-0.4-0.4-0.6-0.9-0.6-1.5v-8.5c0-0.6,0.2-1.1,0.6-1.5
		c0.4-0.4,0.9-0.6,1.5-0.6h50.8c0.6,0,1.1,0.2,1.5,0.6S75.5,24.2,75.5,24.7z"/>
</g>
</svg>
